<svg width="236" height="82" viewBox="0 0 236 82" fill="none" xmlns="http://www.w3.org/2000/svg">
<path d="M19.0508 1.912C21.8935 1.912 24.4935 2.62266 26.8508 4.044C29.2428 5.43066 31.1322 7.32 32.5188 9.712C33.9402 12.0693 34.6508 14.6693 34.6508 17.512V22.92C34.6508 25.7627 33.9402 28.38 32.5188 30.772C31.1322 33.1293 29.2428 35.0187 26.8508 36.44C24.4935 37.8267 21.8935 38.52 19.0508 38.52H16.1388C13.2962 38.52 10.6788 37.8267 8.28682 36.44C5.92949 35.0187 4.04015 33.1293 2.61882 30.772C1.23215 28.38 0.538818 25.7627 0.538818 22.92V17.512C0.538818 14.6693 1.23215 12.0693 2.61882 9.712C4.04015 7.32 5.92949 5.43066 8.28682 4.044C10.6788 2.62266 13.2962 1.912 16.1388 1.912H19.0508ZM17.4908 9.92C16.0348 9.92 14.8042 10.4227 13.7988 11.428C12.7935 12.4333 12.2908 13.664 12.2908 15.12V25.156C12.2908 26.612 12.7935 27.8427 13.7988 28.848C14.8042 29.8533 16.0348 30.356 17.4908 30.356H17.7508C19.2068 30.356 20.4375 29.8533 21.4428 28.848C22.4482 27.8427 22.9508 26.612 22.9508 25.156V15.12C22.9508 13.664 22.4482 12.4333 21.4428 11.428C20.4375 10.4227 19.2068 9.92 17.7508 9.92H17.4908Z" fill="#DEFAE6"/>
<path d="M57.155 10.908C58.5764 10.908 59.8764 11.2547 61.055 11.948C62.2684 12.6413 63.2217 13.5947 63.915 14.808C64.6084 15.9867 64.955 17.2867 64.955 18.708V38H54.659V21.36C54.659 20.4933 54.3817 19.7653 53.827 19.176C53.307 18.552 52.6657 18.24 51.903 18.24C51.1404 18.24 50.4817 18.552 49.927 19.176C49.407 19.7653 49.147 20.4933 49.147 21.36V38H38.851V11.428H46.599L47.639 15.276C49.5457 12.364 52.2324 10.908 55.699 10.908H57.155Z" fill="#DEFAE6"/>
<path d="M84.2799 10.908C86.9493 10.908 89.2373 11.428 91.1439 12.468C93.0853 13.4733 94.5586 14.8773 95.5639 16.68C96.604 18.4827 97.1239 20.5453 97.1239 22.868V26.092H79.8079V28.588C79.8079 29.7667 80.172 30.668 80.8999 31.292C81.6626 31.916 82.6333 32.228 83.8119 32.228C85.0253 32.228 85.9439 31.864 86.5679 31.136C87.2266 30.3733 87.5559 29.3333 87.5559 28.016H97.0719C97.0719 29.992 96.5519 31.7773 95.5119 33.372C94.5066 34.9667 93.0159 36.232 91.0399 37.168C89.0986 38.0693 86.7933 38.52 84.1239 38.52H83.3439C80.5706 38.52 78.0746 38.0173 75.8559 37.012C73.6719 35.972 71.9386 34.4813 70.6559 32.54C69.4079 30.564 68.7839 28.224 68.7839 25.52V23.908C68.7839 21.204 69.3733 18.8813 70.5519 16.94C71.7653 14.964 73.4466 13.4733 75.5959 12.468C77.7453 11.428 80.2066 10.908 82.9799 10.908H84.2799ZM83.3959 17.2C82.3906 17.2 81.5413 17.564 80.8479 18.292C80.1546 18.9853 79.8079 19.8347 79.8079 20.84V21.568H86.9839V20.84C86.9839 19.8347 86.6373 18.9853 85.9439 18.292C85.2506 17.564 84.4013 17.2 83.3959 17.2Z" fill="#DEFAE6"/>
<path d="M117.07 10.908C119.22 10.908 121.144 11.4107 122.842 12.416C124.576 13.4213 125.928 14.9467 126.898 16.992C127.904 19.0027 128.406 21.4813 128.406 24.428V25C128.406 27.9467 127.956 30.4427 127.054 32.488C126.188 34.4987 124.992 36.0067 123.466 37.012C121.976 38.0173 120.277 38.52 118.37 38.52C115.112 38.52 112.824 37.428 111.506 35.244V47.412H101.21V11.428H109.426L110.362 14.496C112.2 12.104 114.436 10.908 117.07 10.908ZM114.73 17.2C113.829 17.2 113.066 17.564 112.442 18.292C111.818 18.9853 111.506 19.8347 111.506 20.84V28.38C111.506 29.3853 111.818 30.252 112.442 30.98C113.066 31.6733 113.829 32.02 114.73 32.02C115.632 32.02 116.394 31.6733 117.018 30.98C117.642 30.252 117.954 29.3853 117.954 28.38V20.84C117.954 19.8347 117.642 18.9853 117.018 18.292C116.394 17.564 115.632 17.2 114.73 17.2Z" fill="#DEFAE6"/>
<path d="M158.337 30.304C158.337 30.9627 158.493 31.448 158.805 31.76C159.117 32.072 159.498 32.228 159.949 32.228C160.608 32.228 161.214 32.072 161.769 31.76V37.324C160.66 38.1213 158.909 38.52 156.517 38.52C154.298 38.52 152.6 38.1733 151.421 37.48C150.242 36.752 149.393 35.6947 148.873 34.308C148.284 35.2093 147.313 36.1453 145.961 37.116C144.609 38.052 143.118 38.52 141.489 38.52H140.033C138.612 38.52 137.294 38.1733 136.081 37.48C134.902 36.7867 133.966 35.8507 133.273 34.672C132.58 33.4587 132.233 32.1413 132.233 30.72V11.428H142.529V28.068C142.529 28.9347 142.789 29.68 143.309 30.304C143.864 30.8933 144.522 31.188 145.285 31.188C146.048 31.188 146.689 30.8933 147.209 30.304C147.764 29.68 148.041 28.9347 148.041 28.068V11.428H158.337V30.304Z" fill="#DEFAE6"/>
<path d="M178.301 10.908C179.965 10.908 181.664 11.1853 183.397 11.74C185.165 12.26 186.639 13.0573 187.817 14.132C188.996 15.2067 189.585 16.5067 189.585 18.032C189.585 18.344 189.568 18.6387 189.533 18.916C189.499 19.1587 189.481 19.3147 189.481 19.384H180.953C180.953 18.552 180.572 17.9627 179.809 17.616C179.081 17.2347 178.249 17.044 177.313 17.044C174.748 17.044 173.465 17.5467 173.465 18.552C173.465 19.176 173.847 19.6093 174.609 19.852C175.407 20.06 176.707 20.268 178.509 20.476C180.867 20.7533 182.808 21.1 184.333 21.516C185.893 21.932 187.245 22.7467 188.389 23.96C189.568 25.1387 190.157 26.872 190.157 29.16C190.157 32.4187 188.961 34.7933 186.569 36.284C184.212 37.7747 181.3 38.52 177.833 38.52H175.129C173.188 38.52 171.333 38.2253 169.565 37.636C167.832 37.012 166.411 36.076 165.301 34.828C164.192 33.58 163.637 32.0547 163.637 30.252V29.784C163.637 29.576 163.655 29.42 163.689 29.316H172.113V29.524C172.113 30.5293 172.564 31.24 173.465 31.656C174.367 32.0373 175.407 32.228 176.585 32.228C177.625 32.228 178.613 32.124 179.549 31.916C180.52 31.708 181.005 31.2747 181.005 30.616C181.005 29.9573 180.607 29.5067 179.809 29.264C179.012 28.9867 177.695 28.7093 175.857 28.432C173.639 28.1547 171.749 27.7907 170.189 27.34C168.629 26.8893 167.277 26.0747 166.133 24.896C165.024 23.6827 164.469 22.0013 164.469 19.852C164.469 17.8413 165.076 16.1773 166.289 14.86C167.537 13.508 169.097 12.52 170.969 11.896C172.841 11.2373 174.748 10.908 176.689 10.908H178.301Z" fill="#DEFAE6"/>
<path d="M204.436 14.548C206.1 12.1213 208.284 10.908 210.988 10.908H212.444C213.865 10.908 215.165 11.2547 216.344 11.948C217.557 12.6413 218.511 13.5947 219.204 14.808C219.897 15.9867 220.244 17.2867 220.244 18.708V38H209.948V21.36C209.948 20.4933 209.671 19.7653 209.116 19.176C208.596 18.552 207.955 18.24 207.192 18.24C206.429 18.24 205.771 18.552 205.216 19.176C204.696 19.7653 204.436 20.4933 204.436 21.36V38H194.14V0.559998H204.436V14.548Z" fill="#DEFAE6"/>
<path d="M235.097 28.484V38H225.165V28.484H235.097Z" fill="#DEFAE6"/>
<path d="M142.665 62.244C144.033 62.244 145.245 62.46 146.301 62.892C147.381 63.324 148.209 63.924 148.785 64.692C149.385 65.46 149.685 66.312 149.685 67.248L149.649 67.896H146.301V67.572C146.301 65.82 144.945 64.944 142.233 64.944C139.545 64.944 138.201 65.748 138.201 67.356C138.201 68.1 138.585 68.652 139.353 69.012C140.121 69.348 141.297 69.672 142.881 69.984C144.393 70.296 145.629 70.62 146.589 70.956C147.573 71.292 148.401 71.82 149.073 72.54C149.769 73.26 150.117 74.232 150.117 75.456C150.117 77.424 149.445 78.9 148.101 79.884C146.757 80.868 144.825 81.36 142.305 81.36H141.765C140.253 81.36 138.933 81.132 137.805 80.676C136.677 80.196 135.801 79.56 135.177 78.768C134.577 77.952 134.289 77.04 134.313 76.032V75.24H137.661V75.6C137.661 77.64 139.377 78.66 142.809 78.66C143.817 78.66 144.717 78.432 145.509 77.976C146.325 77.52 146.733 76.896 146.733 76.104C146.733 75.432 146.505 74.904 146.049 74.52C145.617 74.136 145.077 73.848 144.429 73.656C143.781 73.464 142.881 73.272 141.729 73.08C140.241 72.792 139.041 72.504 138.129 72.216C137.217 71.904 136.437 71.388 135.789 70.668C135.141 69.948 134.817 68.964 134.817 67.716C134.817 66.012 135.489 64.68 136.833 63.72C138.177 62.736 140.013 62.244 142.341 62.244H142.665Z" fill="#DEFAE6"/>
<path d="M158.836 62.604H163.12V65.304H158.836V76.284C158.836 77.148 159.004 77.772 159.34 78.156C159.676 78.54 160.192 78.732 160.888 78.732C161.512 78.732 162.256 78.552 163.12 78.192V80.712C162.256 81.144 161.14 81.36 159.772 81.36C158.356 81.36 157.276 80.94 156.532 80.1C155.812 79.26 155.452 77.928 155.452 76.104V65.304H153.436V62.604H155.56L156.712 56.736H158.836V62.604Z" fill="#DEFAE6"/>
<path d="M182.693 77.4C182.693 77.832 182.789 78.156 182.981 78.372C183.173 78.564 183.413 78.66 183.701 78.66C184.229 78.66 184.769 78.492 185.321 78.156V80.64C184.577 81.12 183.821 81.36 183.053 81.36C181.757 81.36 180.845 81.096 180.317 80.568C179.813 80.04 179.537 79.296 179.489 78.336C178.841 79.296 178.001 80.04 176.969 80.568C175.961 81.096 174.797 81.36 173.477 81.36C171.629 81.36 170.105 80.82 168.905 79.74C167.729 78.636 167.141 77.052 167.141 74.988V62.604H170.525V74.376C170.525 77.232 171.821 78.66 174.413 78.66C175.253 78.66 176.045 78.432 176.789 77.976C177.557 77.52 178.169 76.908 178.625 76.14C179.081 75.348 179.309 74.484 179.309 73.548V62.604H182.693V77.4Z" fill="#DEFAE6"/>
<path d="M204.587 81H202.067C201.899 80.232 201.743 79.392 201.599 78.48C200.231 80.4 198.335 81.36 195.911 81.36C193.607 81.36 191.783 80.508 190.439 78.804C189.119 77.1 188.459 74.76 188.459 71.784V71.388C188.459 68.58 189.107 66.36 190.403 64.728C191.723 63.072 193.559 62.244 195.911 62.244C198.191 62.244 199.955 63.144 201.203 64.944V55.08H204.587V81ZM196.523 64.944C194.915 64.944 193.727 65.508 192.959 66.636C192.215 67.74 191.843 69.468 191.843 71.82C191.843 74.172 192.227 75.9 192.995 77.004C193.763 78.108 194.939 78.66 196.523 78.66C199.667 78.66 201.239 76.38 201.239 71.82C201.239 69.468 200.843 67.74 200.051 66.636C199.259 65.508 198.083 64.944 196.523 64.944Z" fill="#DEFAE6"/>
<path d="M214.019 55.08V58.212H210.491V55.08H214.019ZM213.947 62.604V81H210.563V62.604H213.947Z" fill="#DEFAE6"/>
<path d="M227.259 62.244C229.827 62.244 231.879 63.036 233.415 64.62C234.951 66.204 235.719 68.376 235.719 71.136V72.468C235.719 75.228 234.963 77.4 233.451 78.984C231.939 80.568 229.875 81.36 227.259 81.36C224.643 81.36 222.579 80.568 221.067 78.984C219.555 77.4 218.799 75.228 218.799 72.468V71.136C218.799 68.376 219.567 66.204 221.103 64.62C222.639 63.036 224.691 62.244 227.259 62.244ZM227.259 64.944C225.651 64.944 224.403 65.496 223.515 66.6C222.627 67.704 222.183 69.324 222.183 71.46V72.144C222.183 74.232 222.615 75.84 223.479 76.968C224.367 78.096 225.627 78.66 227.259 78.66C228.843 78.66 230.079 78.108 230.967 77.004C231.879 75.876 232.335 74.256 232.335 72.144V71.46C232.335 69.372 231.891 67.764 231.003 66.636C230.139 65.508 228.891 64.944 227.259 64.944Z" fill="#DEFAE6"/>
</svg>
